<svg width="1440" height="1024" viewBox="0 0 1440 1024" fill="none" xmlns="http://www.w3.org/2000/svg">
<g clip-path="url(#clip0_53_33)">
<rect width="1440" height="1024" fill="white"/>
<path d="M1030.98 410.835C1032.86 399.056 1032.14 386.988 1032.2 375.131C1032.3 362.851 1032.67 350.583 1032.85 338.3C1033.23 313.538 1033.57 288.774 1033.89 264.007L1034.47 222.352C1034.79 196.611 1035.1 170.871 1035.38 145.132C1035.91 101.007 1036.45 56.8824 1037 12.7591C1037.55 -26.341 1038.33 -65.427 1038.88 -104.546C1039.34 -137.246 1039.53 -169.946 1039.99 -202.647C1040.42 -233.816 1041.11 -264.982 1041.57 -296.149C1041.96 -323.82 1042.13 -351.493 1042.49 -379.163C1042.9 -409.361 1043.46 -439.549 1043.87 -469.747C1044.46 -513.684 1044.89 -557.609 1045.52 -601.543C1046.1 -641.224 1046.91 -680.904 1047.43 -720.586C1047.33 -721.891 1047.71 -723.188 1048.48 -724.244C1049.52 -725.421 1051.53 -725.852 1052.98 -726.449C1056.46 -727.854 1059.94 -729.258 1063.41 -730.662L1467.77 -893.927C1467.68 -880.066 1467.59 -866.969 1467.54 -853.868C1467.4 -819.042 1467.36 -784.203 1467.14 -749.379C1466.95 -715.127 1466.49 -680.873 1466.3 -646.589C1466.12 -609.645 1466.1 -572.669 1465.9 -535.713C1465.59 -489.549 1465.14 -443.308 1464.87 -397.042C1464.63 -355.446 1464.44 -313.846 1464.3 -272.243C1464.06 -224.637 1463.78 -177.031 1463.44 -129.423C1463.2 -91.5207 1462.97 -53.5953 1462.77 -15.6469C1462.52 24.9979 1462.24 65.6396 1461.95 106.278L1461.54 159.396L1461.11 212.293L1460.99 227.094C1460.97 229.55 1461.01 232.016 1460.93 234.473C1460.86 236.607 1460.55 238.857 1461.24 240.918L1205.96 343.991C1177.59 355.445 1149.23 366.897 1120.88 378.346L1046.26 408.474C1042.87 409.84 1039.38 411.046 1036.06 412.592C1034.98 413.103 1033.53 414.14 1032.31 413.481C1031.91 413.165 1031.58 412.764 1031.35 412.306C1031.12 411.849 1031 411.347 1030.98 410.835Z" fill="#147AFF"/>
<path d="M1497.43 601.239C1487.21 607.389 1475.75 611.239 1464.78 615.739C1453.43 620.429 1442.19 625.359 1430.87 630.129C1408.05 639.749 1385.22 649.342 1362.37 658.909L1323.94 675.039C1300.19 684.979 1276.44 694.899 1252.68 704.799C1211.96 721.806 1171.25 738.826 1130.54 755.859C1094.54 771.009 1058.54 786.369 1022.47 801.519C992.319 814.189 962.069 826.609 931.919 839.279C903.179 851.349 874.539 863.659 845.809 875.749C820.299 886.479 794.699 896.989 769.179 907.689C741.329 919.369 713.549 931.199 685.699 942.879C645.179 959.879 604.599 976.719 564.109 993.759C527.529 1009.15 491.039 1024.76 454.439 1040.1C453.192 1040.5 452.128 1041.33 451.439 1042.44C450.739 1043.85 451.089 1045.87 451.079 1047.44C451.079 1051.19 451.079 1054.94 451.079 1058.69V1494.76C463.899 1489.49 476.009 1484.5 488.139 1479.55C520.379 1466.38 552.659 1453.3 584.879 1440.06C616.569 1427.06 648.159 1413.81 679.879 1400.8C714.069 1386.8 748.349 1372.94 782.539 1358.91C825.329 1341.34 868.049 1323.61 910.839 1306.03C949.319 1290.23 987.822 1274.48 1026.35 1258.78C1070.4 1240.73 1114.44 1222.64 1158.46 1204.51C1193.54 1190.1 1228.62 1175.69 1263.71 1161.3C1301.3 1145.85 1338.88 1130.38 1376.46 1114.89L1425.56 1094.62L1474.45 1074.42L1488.13 1068.77C1490.4 1067.83 1492.7 1066.94 1494.94 1065.95C1496.94 1065.08 1498.87 1063.95 1501.04 1063.82V788.519C1501.04 757.926 1501.04 727.339 1501.04 696.759V616.289C1501.04 612.639 1500.85 608.949 1501.04 605.289C1501.11 604.099 1501.53 602.369 1500.46 601.479C1500 601.213 1499.5 601.052 1498.97 601.011C1498.45 600.969 1497.92 601.047 1497.43 601.239Z" fill="#147AFF"/>
</g>
<defs>
<clipPath id="clip0_53_33">
<rect width="1440" height="1024" fill="white"/>
</clipPath>
</defs>
</svg>
