<svg width="1440" height="1024" viewBox="0 0 1440 1024" fill="none" xmlns="http://www.w3.org/2000/svg">
<g clip-path="url(#clip0_53_29)">
<rect width="1440" height="1024" fill="white"/>
<path d="M1209.98 469.835C1211.86 458.056 1211.14 445.988 1211.2 434.131C1211.3 421.851 1211.67 409.583 1211.85 397.3C1212.23 372.538 1212.57 347.774 1212.89 323.007L1213.47 281.352C1213.79 255.61 1214.1 229.871 1214.38 204.132C1214.91 160.007 1215.45 115.882 1216 71.759C1216.55 32.6589 1217.33 -6.42714 1217.88 -45.5458C1218.34 -78.2466 1218.53 -110.947 1218.99 -143.647C1219.42 -174.816 1220.11 -205.982 1220.57 -237.149C1220.96 -264.821 1221.13 -292.494 1221.49 -320.163C1221.9 -350.361 1222.46 -380.549 1222.87 -410.747C1223.46 -454.685 1223.89 -498.609 1224.52 -542.543C1225.1 -582.224 1225.91 -621.905 1226.43 -661.586C1226.33 -662.891 1226.71 -664.188 1227.48 -665.244C1228.52 -666.421 1230.53 -666.853 1231.98 -667.45C1235.46 -668.854 1238.94 -670.258 1242.41 -671.662L1646.77 -834.927C1646.68 -821.066 1646.59 -807.969 1646.54 -794.868C1646.4 -760.042 1646.36 -725.203 1646.14 -690.379C1645.95 -656.127 1645.49 -621.873 1645.3 -587.59C1645.12 -550.645 1645.1 -513.669 1644.9 -476.713C1644.59 -430.549 1644.14 -384.308 1643.87 -338.043C1643.63 -296.446 1643.44 -254.846 1643.3 -213.243C1643.06 -165.638 1642.78 -118.031 1642.44 -70.4235C1642.2 -32.5209 1641.97 5.40462 1641.77 43.3529C1641.52 83.9977 1641.24 124.64 1640.95 165.278L1640.54 218.396L1640.11 271.293L1639.99 286.093C1639.97 288.55 1640.01 291.016 1639.93 293.473C1639.86 295.607 1639.55 297.857 1640.24 299.918L1384.96 402.991C1356.59 414.445 1328.23 425.896 1299.88 437.346L1225.26 467.474C1221.87 468.84 1218.38 470.046 1215.06 471.592C1213.98 472.103 1212.53 473.14 1211.31 472.481C1210.91 472.165 1210.58 471.763 1210.35 471.306C1210.12 470.849 1210 470.347 1209.98 469.835Z" fill="#F15A24"/>
<path d="M1436.43 760.239C1426.21 766.389 1414.75 770.239 1403.78 774.739C1392.43 779.429 1381.19 784.359 1369.87 789.129C1347.05 798.749 1324.22 808.342 1301.37 817.909L1262.94 834.039C1239.19 843.979 1215.44 853.899 1191.68 863.799C1150.96 880.806 1110.25 897.826 1069.54 914.859C1033.54 930.009 997.539 945.369 961.469 960.519C931.319 973.189 901.069 985.609 870.919 998.279C842.179 1010.35 813.539 1022.66 784.809 1034.75C759.299 1045.48 733.699 1055.99 708.179 1066.69C680.329 1078.37 652.549 1090.2 624.699 1101.88C584.179 1118.88 543.599 1135.72 503.109 1152.76C466.529 1168.15 430.039 1183.76 393.439 1199.1C392.192 1199.5 391.128 1200.33 390.439 1201.44C389.739 1202.85 390.089 1204.87 390.079 1206.44C390.079 1210.19 390.079 1213.94 390.079 1217.69V1653.76C402.899 1648.49 415.009 1643.5 427.139 1638.55C459.379 1625.38 491.659 1612.3 523.879 1599.06C555.569 1586.06 587.159 1572.81 618.879 1559.8C653.069 1545.8 687.349 1531.94 721.539 1517.91C764.329 1500.34 807.049 1482.61 849.839 1465.03C888.319 1449.23 926.822 1433.48 965.349 1417.78C1009.4 1399.73 1053.44 1381.64 1097.46 1363.51C1132.54 1349.1 1167.62 1334.69 1202.71 1320.3C1240.3 1304.85 1277.88 1289.38 1315.46 1273.89L1364.56 1253.62L1413.45 1233.42L1427.13 1227.77C1429.4 1226.83 1431.7 1225.94 1433.94 1224.95C1435.94 1224.08 1437.87 1222.95 1440.04 1222.82V947.519C1440.04 916.926 1440.04 886.339 1440.04 855.759V775.289C1440.04 771.639 1439.85 767.949 1440.04 764.289C1440.11 763.099 1440.53 761.369 1439.46 760.479C1439 760.213 1438.5 760.052 1437.97 760.011C1437.45 759.969 1436.92 760.047 1436.43 760.239Z" fill="#F15A24"/>
</g>
<defs>
<clipPath id="clip0_53_29">
<rect width="1440" height="1024" fill="white"/>
</clipPath>
</defs>
</svg>
