<svg width="1440" height="1024" viewBox="0 0 1440 1024" fill="none" xmlns="http://www.w3.org/2000/svg">
<g clip-path="url(#clip0_53_30)">
<rect width="1440" height="1024" fill="white"/>
<path d="M1024.98 433.835C1026.86 422.056 1026.14 409.988 1026.2 398.131C1026.3 385.851 1026.67 373.583 1026.85 361.3C1027.23 336.538 1027.57 311.774 1027.89 287.007L1028.47 245.352C1028.79 219.61 1029.1 193.871 1029.38 168.132C1029.91 124.007 1030.45 79.8822 1031 35.759C1031.55 -3.34115 1032.33 -42.4271 1032.88 -81.5458C1033.34 -114.247 1033.53 -146.947 1033.99 -179.647C1034.42 -210.816 1035.11 -241.982 1035.57 -273.149C1035.96 -300.821 1036.13 -328.494 1036.49 -356.163C1036.9 -386.361 1037.46 -416.549 1037.87 -446.747C1038.46 -490.685 1038.89 -534.609 1039.52 -578.543C1040.1 -618.224 1040.91 -657.905 1041.43 -697.586C1041.33 -698.891 1041.71 -700.188 1042.48 -701.244C1043.52 -702.421 1045.53 -702.853 1046.98 -703.45C1050.46 -704.854 1053.94 -706.258 1057.41 -707.662L1461.77 -870.927C1461.68 -857.066 1461.59 -843.969 1461.54 -830.868C1461.4 -796.042 1461.36 -761.203 1461.14 -726.379C1460.95 -692.127 1460.49 -657.873 1460.3 -623.59C1460.12 -586.645 1460.1 -549.669 1459.9 -512.713C1459.59 -466.549 1459.14 -420.308 1458.87 -374.043C1458.63 -332.446 1458.44 -290.846 1458.3 -249.243C1458.06 -201.638 1457.78 -154.031 1457.44 -106.424C1457.2 -68.5209 1456.97 -30.5954 1456.77 7.35293C1456.52 47.9977 1456.24 88.6395 1455.95 129.278L1455.54 182.396L1455.11 235.293L1454.99 250.093C1454.97 252.55 1455.01 255.016 1454.93 257.473C1454.86 259.607 1454.55 261.857 1455.24 263.918L1199.96 366.991C1171.59 378.445 1143.23 389.896 1114.88 401.346L1040.26 431.474C1036.87 432.84 1033.38 434.046 1030.06 435.592C1028.98 436.103 1027.53 437.14 1026.31 436.481C1025.91 436.165 1025.58 435.763 1025.35 435.306C1025.12 434.849 1025 434.347 1024.98 433.835Z" fill="#FF1414"/>
<path d="M1497.43 601.239C1487.21 607.389 1475.75 611.239 1464.78 615.739C1453.43 620.429 1442.19 625.359 1430.87 630.129C1408.05 639.749 1385.22 649.342 1362.37 658.909L1323.94 675.039C1300.19 684.979 1276.44 694.899 1252.68 704.799C1211.96 721.806 1171.25 738.826 1130.54 755.859C1094.54 771.009 1058.54 786.369 1022.47 801.519C992.319 814.189 962.069 826.609 931.919 839.279C903.179 851.349 874.539 863.659 845.809 875.749C820.299 886.479 794.699 896.989 769.179 907.689C741.329 919.369 713.549 931.199 685.699 942.879C645.179 959.879 604.599 976.719 564.109 993.759C527.529 1009.15 491.039 1024.76 454.439 1040.1C453.192 1040.5 452.128 1041.33 451.439 1042.44C450.739 1043.85 451.089 1045.87 451.079 1047.44C451.079 1051.19 451.079 1054.94 451.079 1058.69V1494.76C463.899 1489.49 476.009 1484.5 488.139 1479.55C520.379 1466.38 552.659 1453.3 584.879 1440.06C616.569 1427.06 648.159 1413.81 679.879 1400.8C714.069 1386.8 748.349 1372.94 782.539 1358.91C825.329 1341.34 868.049 1323.61 910.839 1306.03C949.319 1290.23 987.822 1274.48 1026.35 1258.78C1070.4 1240.73 1114.44 1222.64 1158.46 1204.51C1193.54 1190.1 1228.62 1175.69 1263.71 1161.3C1301.3 1145.85 1338.88 1130.38 1376.46 1114.89L1425.56 1094.62L1474.45 1074.42L1488.13 1068.77C1490.4 1067.83 1492.7 1066.94 1494.94 1065.95C1496.94 1065.08 1498.87 1063.95 1501.04 1063.82V788.519C1501.04 757.926 1501.04 727.339 1501.04 696.759V616.289C1501.04 612.639 1500.85 608.949 1501.04 605.289C1501.11 604.099 1501.53 602.369 1500.46 601.479C1500 601.213 1499.5 601.052 1498.97 601.011C1498.45 600.969 1497.92 601.047 1497.43 601.239Z" fill="#FF1414"/>
</g>
<defs>
<clipPath id="clip0_53_30">
<rect width="1440" height="1024" fill="white"/>
</clipPath>
</defs>
</svg>
